<svg id="Layer_1" data-name="Layer 1" xmlns="http://www.w3.org/2000/svg" viewBox="0 0 125.24 57.41"><defs><style>.cls-1{fill:#fff;}.cls-2,.cls-3{fill:#ec1c24;}.cls-2{stroke:#ec1c24;stroke-miterlimit:10;stroke-width:0.5px;}.cls-4{fill:#231f20;}</style></defs><rect class="cls-1" width="125.24" height="57.41"/><path class="cls-2" d="M28.43,8.44h3.78a6.83,6.83,0,0,1,2.44.41A5.76,5.76,0,0,1,36.57,10a5,5,0,0,1,1.24,1.71,5.17,5.17,0,0,1,.44,2.13v0A5.29,5.29,0,0,1,37.81,16a5.15,5.15,0,0,1-1.24,1.72,6.13,6.13,0,0,1-1.92,1.15,7.06,7.06,0,0,1-2.44.41H28.43Zm3.78,10.12a6,6,0,0,0,2.14-.37,4.85,4.85,0,0,0,1.63-1,4.46,4.46,0,0,0,1.39-3.31v0A4.65,4.65,0,0,0,37,12a4.57,4.57,0,0,0-1-1.49,4.89,4.89,0,0,0-1.63-1,5.83,5.83,0,0,0-2.14-.38H29.27v9.4Z" transform="translate(3.39 0.77)"/><path class="cls-2" d="M43.05,11.38h.8v2.25a4.34,4.34,0,0,1,.61-1,4.15,4.15,0,0,1,.85-.77,3.6,3.6,0,0,1,1-.48,3.76,3.76,0,0,1,1.17-.14v.83h-.08a3.7,3.7,0,0,0-1.36.26,3.25,3.25,0,0,0-1.15.76,3.55,3.55,0,0,0-.78,1.24,4.45,4.45,0,0,0-.29,1.7v3.23h-.8Z" transform="translate(3.39 0.77)"/><path class="cls-2" d="M54.17,19.47A4.56,4.56,0,0,1,53,19.32a3.4,3.4,0,0,1-1-.47,2.59,2.59,0,0,1-.74-.77A2.06,2.06,0,0,1,51,17v0a2.21,2.21,0,0,1,.27-1.1,2.45,2.45,0,0,1,.73-.81,3.7,3.7,0,0,1,1.14-.49,5.68,5.68,0,0,1,1.48-.17,11,11,0,0,1,1.51.09,9.92,9.92,0,0,1,1.23.25v-.34a2.21,2.21,0,0,0-.72-1.8,3.05,3.05,0,0,0-2-.61,5.08,5.08,0,0,0-1.39.18,6.92,6.92,0,0,0-1.2.46L51.72,12a8.07,8.07,0,0,1,1.37-.5,5.85,5.85,0,0,1,1.56-.19,3.69,3.69,0,0,1,2.62.86,3,3,0,0,1,.84,2.24v4.92h-.78V18a4.26,4.26,0,0,1-.51.55,3.52,3.52,0,0,1-.69.48,4.23,4.23,0,0,1-.89.34A4,4,0,0,1,54.17,19.47Zm0-.73a4,4,0,0,0,1.21-.18,3.16,3.16,0,0,0,1-.49,2.33,2.33,0,0,0,.68-.76,2,2,0,0,0,.26-1v-.9c-.35-.08-.76-.16-1.22-.24a10.82,10.82,0,0,0-1.59-.11,3.48,3.48,0,0,0-2,.5,1.56,1.56,0,0,0-.71,1.34v0a1.49,1.49,0,0,0,.2.76,1.74,1.74,0,0,0,.52.56,2.43,2.43,0,0,0,.78.36A3.37,3.37,0,0,0,54.21,18.74Z" transform="translate(3.39 0.77)"/><path class="cls-2" d="M66.22,19.47a3.79,3.79,0,0,1-1.39-.24,3,3,0,0,1-1-.67,2.91,2.91,0,0,1-.65-1,3.71,3.71,0,0,1-.22-1.31V11.38h.8v4.7a2.75,2.75,0,0,0,.68,2,2.51,2.51,0,0,0,2,.73,3,3,0,0,0,1.12-.21,2.72,2.72,0,0,0,.92-.58,2.66,2.66,0,0,0,.61-.89A2.79,2.79,0,0,0,69.21,16V11.38H70v7.9h-.79V17.81A3.66,3.66,0,0,1,68.07,19,3.24,3.24,0,0,1,66.22,19.47Z" transform="translate(3.39 0.77)"/><path class="cls-2" d="M75.13,11.38h.8v1.77a5.19,5.19,0,0,1,.6-.75,4.5,4.5,0,0,1,.75-.62,4.39,4.39,0,0,1,.93-.42,3.6,3.6,0,0,1,1.12-.17,4.08,4.08,0,0,1,2.76,1.09A3.93,3.93,0,0,1,83,13.57a4.18,4.18,0,0,1,.35,1.73v0A4.18,4.18,0,0,1,83,17.06a4.07,4.07,0,0,1-4.81,2.26,4.25,4.25,0,0,1-.94-.42,4.37,4.37,0,0,1-.74-.61,4.94,4.94,0,0,1-.59-.71v4.18h-.8Zm4.13,7.36a3.59,3.59,0,0,0,1.28-.23,3,3,0,0,0,1.72-1.73,3.74,3.74,0,0,0,.25-1.42v0a3.61,3.61,0,0,0-.26-1.41,3.36,3.36,0,0,0-.7-1.08,3.29,3.29,0,0,0-1-.68,3.35,3.35,0,0,0-1.25-.24,3.45,3.45,0,0,0-1.26.25,3.41,3.41,0,0,0-1.08.7,3.3,3.3,0,0,0-.76,1.07,3.24,3.24,0,0,0-.28,1.38v0a3.27,3.27,0,0,0,.28,1.38A3.39,3.39,0,0,0,78,18.49,3.26,3.26,0,0,0,79.26,18.74Z" transform="translate(3.39 0.77)"/><path class="cls-2" d="M90.47,19.47a4.56,4.56,0,0,1-1.16-.15,3.4,3.4,0,0,1-1-.47,2.59,2.59,0,0,1-.74-.77A2.06,2.06,0,0,1,87.27,17v0a2.21,2.21,0,0,1,.27-1.1,2.45,2.45,0,0,1,.73-.81,3.7,3.7,0,0,1,1.14-.49,5.68,5.68,0,0,1,1.48-.17,11,11,0,0,1,1.51.09,9.92,9.92,0,0,1,1.23.25v-.34a2.21,2.21,0,0,0-.72-1.8,3.05,3.05,0,0,0-2-.61,5.08,5.08,0,0,0-1.39.18,6.92,6.92,0,0,0-1.2.46L88,12a8.07,8.07,0,0,1,1.37-.5A5.85,5.85,0,0,1,91,11.26a3.65,3.65,0,0,1,2.61.86,2.94,2.94,0,0,1,.85,2.24v4.92h-.78V18a4.26,4.26,0,0,1-.51.55,3.52,3.52,0,0,1-.69.48,4.23,4.23,0,0,1-.89.34A4.08,4.08,0,0,1,90.47,19.47Zm0-.73a3.87,3.87,0,0,0,1.2-.18,3.11,3.11,0,0,0,1-.49,2.33,2.33,0,0,0,.68-.76,2,2,0,0,0,.26-1v-.9c-.35-.08-.76-.16-1.22-.24a10.82,10.82,0,0,0-1.59-.11,3.48,3.48,0,0,0-2,.5,1.56,1.56,0,0,0-.71,1.34v0a1.49,1.49,0,0,0,.2.76,1.74,1.74,0,0,0,.52.56,2.43,2.43,0,0,0,.78.36A3.37,3.37,0,0,0,90.51,18.74Z" transform="translate(3.39 0.77)"/><path class="cls-2" d="M102.86,19.47a4,4,0,0,1-1.47-.28,3.93,3.93,0,0,1-1.29-.8,4.22,4.22,0,0,1-.91-1.3,4,4,0,0,1-.35-1.73v0a4.05,4.05,0,0,1,.35-1.73,4.22,4.22,0,0,1,.91-1.3,4.16,4.16,0,0,1,1.29-.82,4,4,0,0,1,1.47-.29,4.13,4.13,0,0,1,1.14.16,3.43,3.43,0,0,1,.93.42,3.66,3.66,0,0,1,.75.6,6.34,6.34,0,0,1,.59.71V8h.8V19.28h-.8V17.52a7,7,0,0,1-.61.74,3.64,3.64,0,0,1-.74.62,4,4,0,0,1-.93.43A3.67,3.67,0,0,1,102.86,19.47Zm.08-.73a3.26,3.26,0,0,0,1.26-.25,3.43,3.43,0,0,0,1.08-.69,3.56,3.56,0,0,0,.75-1.07,3.31,3.31,0,0,0,.29-1.38v0a3.38,3.38,0,0,0-1-2.46,3.82,3.82,0,0,0-1.08-.69,3.45,3.45,0,0,0-1.26-.25,3.35,3.35,0,0,0-1.28.24,2.85,2.85,0,0,0-1,.66,3,3,0,0,0-.7,1.06,4,4,0,0,0-.25,1.42v0a3.73,3.73,0,0,0,.26,1.41,3.17,3.17,0,0,0,.71,1.08,3.25,3.25,0,0,0,2.29.92Z" transform="translate(3.39 0.77)"/><path class="cls-2" d="M112.21,8.28h1v1h-1Zm.1,3.1h.79v7.9h-.79Z" transform="translate(3.39 0.77)"/><path class="cls-3" d="M4.81,48.13C5.08,41.68,6.76,29,15,27.61c7.68-1.31,8.45,8.07,9.31,13.24,1,6.31,6.49,13.6,10.74,4.83,1.46-3,2.44-6.67,5.59-8.44,3.61-2,6,0,8.29,2.74,2,2.32,4.31,6.12,7.88,4.35,2.63-1.3,3-4.87,5.65-6.28,2.9-1.54,5.89-.51,7.94,1.78,1.75,2,2.48,4.76,5.7,3.76,2.41-.75,3.72-3.5,6-4.52,3.39-1.52,5.86.83,8.7,2.44,7.12,4.06,14.8,2.67,22.44,1.2.5-.09-.39-7.17,0-7.25C105.06,37,97.5,38.21,90,33.83c-2.78-1.63-5.19-3.62-8.41-1.76-2,1.15-3.59,4-6,4.45C72.36,37.07,71.81,34,70,32.1a6.46,6.46,0,0,0-8.15-1c-2.34,1.57-2.79,5.32-5.6,6.27-3.9,1.32-6.07-3.38-8.16-5.63-7-7.51-10.88,3-13.73,8-1.84,3.25-4.69,4.16-7.45,1-2-2.28-2.43-5.56-2.84-8.43-.79-5.54-2.91-14.45-10.59-11.49-7.11,2.74-8.43,13.93-8.7,20.34-.09,2.18.09,5.28,0,7Z" transform="translate(3.39 0.77)"/><path class="cls-4" d="M16.2,7.81c-1-.33-2.07-.64-3.09-1-.78-.27-1.47-.55-1.69-1.43V12.5c.12-2.49,4.48-2.53,6.14-2.24V3a12.13,12.13,0,0,0-.72,4.55,68.7,68.7,0,0,0,.09,7c-.23-2.39.22-4.85,0-7.25q-.37,8,.06,4.84c0-.2.08-.39.13-.59a9.87,9.87,0,0,1,.44-1.33,49.93,49.93,0,0,0,0-7.25,8.07,8.07,0,0,0-4.43.38c-1.68.71-1.73,1.78-1.75,3.42s0,3.17,0,4.76a2.47,2.47,0,0,0,.37,1.79,4,4,0,0,0,1.78.85l2.65.85c-.12,0,0-3.32,0-3.62s.2-3.55,0-3.63Z" transform="translate(3.39 0.77)"/></svg>