<svg id="Layer_1" data-name="Layer 1" xmlns="http://www.w3.org/2000/svg" viewBox="0 0 14.55 14.55"><defs><style>.cls-1{fill-rule:evenodd;}</style></defs><path id="Path_1" data-name="Path 1" class="cls-1" d="M14.06,15.28a1.19,1.19,0,0,0,1.21-1.22c0-1.21-1.21-4.85-7.27-4.85S.73,12.85.73,14.06a1.18,1.18,0,0,0,1.21,1.21ZM1.94,14.13Zm0-.07h12.1a3.19,3.19,0,0,0-1-2c-.79-.79-2.27-1.61-5.05-1.61S3.74,11.25,3,12a3.19,3.19,0,0,0-1,2Zm12.1.07ZM8,6.79A2.43,2.43,0,1,0,5.58,4.36h0A2.42,2.42,0,0,0,8,6.79Zm3.64-2.43A3.64,3.64,0,1,1,8,.72H8A3.64,3.64,0,0,1,11.64,4.36Z" transform="translate(-0.73 -0.72)"/></svg>